<?xml version="1.0" ?><svg style="enable-background:new 0 0 48 48;" version="1.1" viewBox="0 0 48 48" xml:space="preserve" xmlns="http://www.w3.org/2000/svg" xmlns:xlink="http://www.w3.org/1999/xlink"><g id="Padding__x26__Artboard"/><g id="Icons"><g><polygon points="17.65161,14.1167 16.13745,14.1167 16.13745,15.47021 31.83813,15.47021 31.83813,14.1167     17.6604,14.1167   " style="fill:#303030;"/><path d="M36.38354,25.44873c0.31055,0,0.56299-0.25244,0.56299-0.5625v-6.89746    c0-0.31055-0.25244-0.56299-0.56299-0.56299h-1.43701v3.5c0,0.16553-0.13428,0.2998-0.2998,0.2998s-0.2998-0.13428-0.2998-0.2998    v-3.5h-1.32227c-0.31006,0-0.5625,0.25244-0.5625,0.56299v6.89746c0,0.31006,0.25244,0.5625,0.5625,0.5625h0.43555H36.38354z" style="fill:#303030;"/><path d="M19.33032,9.30566c0.12598-0.10693,0.31543-0.0918,0.42236,0.03662    c0.10693,0.12646,0.09033,0.31592-0.03662,0.42236c-1.32391,1.11359-1.65149,3.01416-1.73065,3.75244h13.83752    c-0.15936-4.18909-3.60748-7.55078-7.8349-7.55078s-7.67603,3.36169-7.83539,7.55078h1.22833    C17.45404,12.74158,17.79163,10.59961,19.33032,9.30566z M27.18958,10.9776c0.44781,0,0.81085,0.36304,0.81085,0.81085    s-0.36304,0.81079-0.81085,0.81079s-0.81085-0.36298-0.81085-0.81079S26.74176,10.9776,27.18958,10.9776z M23.58911,7.93213    c0.99756,0,1.80908,0.81152,1.80908,1.80957c0,0.99756-0.81152,1.80908-1.80908,1.80908s-1.80908-0.81152-1.80908-1.80908    C21.78003,8.74365,22.59155,7.93213,23.58911,7.93213z" style="fill:#303030;"/><path d="M16.13745,17.98877v6.89746v8.31592c0,1.21777,0.99121,2.20898,2.20898,2.20898h11.28271    c1.21777,0,2.20898-0.99121,2.20898-2.20898V16.06982H16.13745V17.98877z M23.75031,34.39893    c-0.51459,0-0.93182-0.41724-0.93182-0.93188s0.41724-0.93188,0.93182-0.93188c0.51465,0,0.93188,0.41724,0.93188,0.93188    S24.26495,34.39893,23.75031,34.39893z M25.39819,30.93652c0,0.16553-0.13428,0.2998-0.2998,0.2998H22.4021    c-0.16553,0-0.2998-0.13428-0.2998-0.2998v-5.19629c0-0.16553,0.13428-0.2998,0.2998-0.2998h2.69629    c0.16553,0,0.2998,0.13428,0.2998,0.2998V30.93652z M30.22681,26.51562c0-0.16553,0.13428-0.2998,0.2998-0.2998    s0.2998,0.13428,0.2998,0.2998v1.11914c0,0.16553-0.13428,0.2998-0.2998,0.2998s-0.2998-0.13428-0.2998-0.2998V26.51562z     M30.22681,31.66846v-2.48779c0-0.16553,0.13428-0.2998,0.2998-0.2998s0.2998,0.13428,0.2998,0.2998v2.48779    c0,1.10889-0.26904,1.90332-0.80029,2.36133c-0.40088,0.34521-0.84082,0.39648-1.06543,0.39648    c-0.08691,0-0.14111-0.00781-0.14893-0.00879c-0.16357-0.02441-0.27686-0.17725-0.25244-0.34131    c0.02441-0.16309,0.17578-0.28223,0.33887-0.25244c0.02051,0.00244,0.40381,0.04492,0.74463-0.25586    C30.02466,33.23145,30.22681,32.57471,30.22681,31.66846z M18.02271,17.7583c0-0.16553,0.13428-0.2998,0.2998-0.2998h10.85547    c0.16553,0,0.2998,0.13428,0.2998,0.2998v2.25684c0,0.16553-0.13428,0.2998-0.2998,0.2998H18.32251    c-0.16553,0-0.2998-0.13428-0.2998-0.2998V17.7583z M18.02271,21.4292c0-0.16553,0.13428-0.2998,0.2998-0.2998h10.85547    c0.16553,0,0.2998,0.13428,0.2998,0.2998v2.25684c0,0.16553-0.13428,0.2998-0.2998,0.2998H18.32251    c-0.16553,0-0.2998-0.13428-0.2998-0.2998V21.4292z M17.87915,26.80664h2.05029c0.16553,0,0.2998,0.13428,0.2998,0.2998    s-0.13428,0.2998-0.2998,0.2998h-2.05029c-0.16553,0-0.2998-0.13428-0.2998-0.2998S17.71362,26.80664,17.87915,26.80664z     M17.87915,28.75439h2.05029c0.16553,0,0.2998,0.13428,0.2998,0.2998s-0.13428,0.2998-0.2998,0.2998h-2.05029    c-0.16553,0-0.2998-0.13428-0.2998-0.2998S17.71362,28.75439,17.87915,28.75439z M17.87915,30.70166h2.05029    c0.16553,0,0.2998,0.13428,0.2998,0.2998s-0.13428,0.2998-0.2998,0.2998h-2.05029c-0.16553,0-0.2998-0.13428-0.2998-0.2998    S17.71362,30.70166,17.87915,30.70166z" style="fill:#303030;"/><rect height="4.59668" style="fill:#303030;" width="2.09668" x="22.7019" y="26.04004"/><circle cx="23.58911" cy="9.74158" r="1.20959" style="fill:#303030;"/><path d="M14.97534,17.42578h-1.32227v3.5c0,0.16553-0.13428,0.2998-0.2998,0.2998    s-0.2998-0.13428-0.2998-0.2998v-3.5h-1.43701c-0.31055,0-0.56299,0.25244-0.56299,0.56299v6.89746    c0,0.31006,0.25244,0.5625,0.56299,0.5625h2.92334h0.43555c0.31006,0,0.5625-0.25244,0.5625-0.5625v-6.89746    C15.53784,17.67822,15.2854,17.42578,14.97534,17.42578z" style="fill:#303030;"/><path d="M16.55591,41.6167l-1.71167-4.04346h-0.65192h-2.29547h-0.65784l-1.81104,4.03809    c-0.0415,0.09277-0.0332,0.2002,0.02197,0.28564s0.15039,0.13672,0.25195,0.13672h6.57764c0.10059,0,0.19434-0.05029,0.25-0.13428    C16.58521,41.81592,16.59497,41.70947,16.55591,41.6167z" style="fill:#303030;"/><polygon points="14.23999,26.04834 11.74097,26.04834 11.74097,36.97363 14.23999,36.97363     14.8396,36.97363 14.8396,26.04834   " style="fill:#303030;"/><g><polygon points="36.25903,36.97363 36.25903,26.04834 33.76001,26.04834 33.1604,26.04834      33.1604,36.97363 33.76001,36.97363    " style="fill:#303030;"/><path d="M38.57202,41.61133l-1.81104-4.03809h-0.65784h-2.29547h-0.65192l-1.71167,4.04346     c-0.03906,0.09277-0.0293,0.19922,0.02637,0.28271c0.05566,0.08398,0.14941,0.13428,0.25,0.13428h6.57764     c0.10156,0,0.19629-0.05127,0.25195-0.13672C38.60522,41.81152,38.61353,41.7041,38.57202,41.61133z" style="fill:#303030;"/></g><path d="M16.50665,35.30719c-0.13593-0.11896-0.25763-0.25305-0.3692-0.39508v0.49902h0.38617l-0.00873-0.0166    C16.50006,35.36652,16.51202,35.33673,16.50665,35.30719z" style="fill:none;"/><polygon points="20.8302,36.01074 21.45972,37.2998 21.72583,37.89941 26.49109,37.89941 26.802,37.2998     27.43152,36.01074   " style="fill:#303030;"/><path d="M16.50665,35.30719c0.00537,0.02954-0.00659,0.05933,0.00824,0.08734l0.00873,0.0166h0.11853    C16.5636,35.35266,16.50665,35.30719,16.50665,35.30719z" style="fill:#303030;"/><path d="M20.79187,37.2998l-0.62952-1.28906h-1.81592c-0.32239,0-0.62726-0.06573-0.91589-0.1662    c-0.34857-0.12585-0.6308-0.31616-0.78839-0.43341h-0.11853l1.22711,2.32861c0.05225,0.09814,0.1543,0.15967,0.26562,0.15967    h3.09247L20.79187,37.2998z" style="fill:#303030;"/><path d="M30.85553,35.7168c-0.37213,0.18237-0.78473,0.29395-1.22638,0.29395h-1.52979l-0.62952,1.28906    l-0.29834,0.59961h3.19885c0.11963,0,0.22803-0.07129,0.27539-0.18115l1.12451-2.6084    c0.01636-0.03766,0.00128-0.07507,0.00171-0.11371C31.43085,35.35333,30.85553,35.7168,30.85553,35.7168z" style="fill:#303030;"/></g></g></svg>